<svg width="143" height="100" viewBox="0 0 143 100" fill="none" xmlns="http://www.w3.org/2000/svg">
<path d="M47.829 5.40462H40.5075L38.6767 8.10825C27.6952 5.40462 7.56326 2.70363 7.56326 2.70363C7.56326 2.70363 -1.58731 2.70363 0.241733 5.40725C3.90161 13.5155 27.6952 29.732 36.8458 32.433C45.9964 35.134 58.8086 37.8376 58.8086 37.8376C58.8086 37.8376 69.79 43.2422 64.2993 62.1624C58.8086 81.0799 47.8272 86.4871 45.9982 89.1881C44.1691 91.8891 47.829 97.2964 47.829 97.2964H55.1505C62.4721 91.8917 67.961 89.1881 80.7732 89.1881C93.5855 89.1881 105.515 100 105.515 100H115.546V89.1881C115.546 89.1881 97.2453 75.6752 95.4145 59.4587C93.5837 43.2422 93.5837 45.9459 97.2453 35.134C100.905 24.3221 110.056 18.9175 117.377 16.2165C124.699 13.5155 143 13.5129 143 13.5129V0H49.6598" fill="#C7493A"/>
</svg>
