<svg width="143" height="70" viewBox="0 0 143 70" fill="none" xmlns="http://www.w3.org/2000/svg">
<path d="M47.8306 3.76227H40.5088L38.6779 5.64432C27.6961 3.76227 7.56351 1.88205 7.56351 1.88205C7.56351 1.88205 -1.58736 1.88205 0.241741 3.7641C3.90173 9.40842 27.6961 20.6971 36.847 22.5773C45.9979 24.4575 58.8105 26.3395 58.8105 26.3395C58.8105 26.3395 69.7923 30.1018 64.3014 43.2725C58.8105 56.4414 47.8288 60.2055 45.9997 62.0857C44.1706 63.9659 47.8306 67.73 47.8306 67.73H55.1523C62.4741 63.9677 67.9632 62.0857 80.7758 62.0857C93.5885 62.0857 105.519 69.6121 105.519 69.6121H115.55V62.0857C115.55 62.0857 97.2485 52.6791 95.4176 41.3905C93.5867 30.1018 93.5867 31.9839 97.2485 24.4575C100.908 16.9311 110.059 13.1689 117.381 11.2886C124.703 9.40842 143.005 9.40659 143.005 9.40659V0H49.6614" fill="#C7493A"/>
</svg>
