<svg width="223" height="70" viewBox="0 0 223 70" fill="none" xmlns="http://www.w3.org/2000/svg">
<g clip-path="url(#clip0_7_77)">
<path d="M57.8282 3.95624H50.5065L48.6756 5.83829C37.6938 3.95624 17.5612 2.07602 17.5612 2.07602C17.5612 2.07602 8.41032 2.07602 10.2394 3.95807C13.8994 9.60239 37.6938 20.891 46.8447 22.7713C55.9956 24.6515 68.8082 26.5335 68.8082 26.5335C68.8082 26.5335 79.79 30.2958 74.2991 43.4665C68.8082 56.6353 57.8265 60.3994 55.9974 62.2797C54.1683 64.1599 57.8282 67.924 57.8282 67.924H65.15C72.4718 64.1617 77.9609 62.2797 90.7735 62.2797C103.586 62.2797 115.516 69.806 115.516 69.806H125.548V62.2797C125.548 62.2797 107.246 52.8731 105.415 41.5844C103.584 30.2958 103.584 32.1778 107.246 24.6515C110.906 17.1251 120.057 13.3628 127.379 11.4826C134.701 9.6024 153.002 9.60056 153.002 9.60056V0.193974H59.6591" fill="#C7493A"/>
<path d="M159.113 26V0.799998H171.245C173.597 0.799998 175.625 1.184 177.329 1.952C179.057 2.72 180.389 3.824 181.325 5.264C182.261 6.68 182.729 8.36 182.729 10.304C182.729 12.248 182.261 13.928 181.325 15.344C180.389 16.76 179.057 17.864 177.329 18.656C175.625 19.424 173.597 19.808 171.245 19.808H163.829L167.609 16.172V26H159.113ZM167.609 17.108L163.829 13.256H170.705C171.881 13.256 172.745 12.992 173.297 12.464C173.873 11.936 174.161 11.216 174.161 10.304C174.161 9.392 173.873 8.672 173.297 8.144C172.745 7.616 171.881 7.352 170.705 7.352H163.829L167.609 3.5V17.108ZM186.758 19.412C188.246 19.796 189.41 19.928 190.25 19.808C191.09 19.664 191.834 19.148 192.482 18.26L193.706 16.532L194.426 15.74L201.734 0.799998H209.942L199.826 19.772C198.722 21.836 197.39 23.444 195.83 24.596C194.294 25.724 192.59 26.372 190.718 26.54C188.846 26.708 186.866 26.372 184.778 25.532L186.758 19.412ZM194.318 22.4L182.582 0.799998H191.546L198.926 16.532L194.318 22.4ZM171.469 70.576C169.453 70.576 167.581 70.264 165.853 69.64C164.149 68.992 162.661 68.08 161.389 66.904C160.141 65.728 159.169 64.336 158.473 62.728C157.777 61.12 157.429 59.344 157.429 57.4C157.429 55.456 157.777 53.68 158.473 52.072C159.169 50.464 160.141 49.072 161.389 47.896C162.661 46.72 164.149 45.82 165.853 45.196C167.581 44.548 169.453 44.224 171.469 44.224C173.941 44.224 176.125 44.656 178.021 45.52C179.941 46.384 181.525 47.632 182.773 49.264L177.409 54.052C176.665 53.116 175.837 52.396 174.925 51.892C174.037 51.364 173.029 51.1 171.901 51.1C171.013 51.1 170.209 51.244 169.489 51.532C168.769 51.82 168.145 52.24 167.617 52.792C167.113 53.344 166.717 54.016 166.429 54.808C166.141 55.576 165.997 56.44 165.997 57.4C165.997 58.36 166.141 59.236 166.429 60.028C166.717 60.796 167.113 61.456 167.617 62.008C168.145 62.56 168.769 62.98 169.489 63.268C170.209 63.556 171.013 63.7 171.901 63.7C173.029 63.7 174.037 63.448 174.925 62.944C175.837 62.416 176.665 61.684 177.409 60.748L182.773 65.536C181.525 67.144 179.941 68.392 178.021 69.28C176.125 70.144 173.941 70.576 171.469 70.576ZM198.912 52.54C201.984 52.54 204.384 53.236 206.112 54.628C207.864 55.996 208.74 58.072 208.74 60.856C208.74 63.856 207.756 66.136 205.788 67.696C203.82 69.232 201.168 70 197.832 70H185.34V44.8H193.692V52.54H198.912ZM197.256 64.06C198.096 64.06 198.792 63.796 199.344 63.268C199.92 62.716 200.208 61.96 200.208 61C200.208 60.04 199.92 59.38 199.344 59.02C198.792 58.66 198.096 58.48 197.256 58.48H193.692V64.06H197.256Z" fill="white"/>
</g>
<defs>
<clipPath id="clip0_7_77">
<rect width="223" height="70" fill="white"/>
</clipPath>
</defs>
</svg>
